<svg width="74" height="66" viewBox="0.088 0.35 74.35 76.238" fill="none" xmlns="http://www.w3.org/2000/svg">
  <path d="M1.69553 49.3875C0.896777 54.615 4.46303 58.2412 8.82803 60.0487C25.5643 66.9862 48.8518 66.9862 65.588 60.0487C69.953 58.2412 73.5193 54.6112 72.7205 49.3875C72.233 46.1737 69.8068 43.5 68.0105 40.8862C65.6593 37.4212 65.4268 33.645 65.423 29.625C65.4268 14.0925 52.7968 1.5 37.208 1.5C21.6193 1.5 8.98928 14.0925 8.98928 29.625C8.98928 33.645 8.75678 37.425 6.40178 40.8862C4.60928 43.5 2.18678 46.1737 1.69553 49.3875Z" stroke="#253017" stroke-width="1.5" stroke-linecap="round" stroke-linejoin="round"/>
  <svg width="32" height="14" viewBox="0 0 32 14" fill="none" xmlns="http://www.w3.org/2000/svg" transform="matrix(0.9999999999999999, 0, 0, 0.9999999999999999, 20.563473685340195, 62.82798131458105)">
    <path d="M1.20801 1.25C2.92551 7.71875 8.99301 12.5 16.208 12.5C23.4268 12.5 29.4868 7.71875 31.208 1.25" stroke="#253017" stroke-width="1.5" stroke-linecap="round" stroke-linejoin="round"/>
  </svg>
</svg>