<svg width="12" height="12" viewBox="0 0 12 12" fill="none" xmlns="http://www.w3.org/2000/svg">
<path d="M10.7438 2.28919L2.25847 10.7745C1.96856 11.0644 1.48772 11.0644 1.19781 10.7745C0.907897 10.4846 0.907897 10.0037 1.19781 9.71381L9.68309 1.22853C9.97301 0.938614 10.4538 0.938614 10.7438 1.22853C11.0337 1.51844 11.0337 1.99927 10.7438 2.28919Z" fill="#253017"/>
<path d="M10.7438 10.7734C10.4538 11.0633 9.97301 11.0633 9.68309 10.7734L1.19781 2.28814C0.907897 1.99823 0.907897 1.5174 1.19781 1.22748C1.48772 0.937569 1.96856 0.937569 2.25847 1.22748L10.7438 9.71277C11.0337 10.0027 11.0337 10.4835 10.7438 10.7734Z" fill="#253017"/>
</svg>
