<svg width="25" height="24" viewBox="0 0 25 24" fill="none" xmlns="http://www.w3.org/2000/svg">
<path d="M6.58544 18.9705C6.01331 18.9705 5.4787 18.7735 5.09415 18.4078C4.60643 17.9482 4.37195 17.2541 4.45637 16.5038L4.8034 13.4649C4.86905 12.8928 5.21608 12.1331 5.61939 11.7204L13.3197 3.56987C15.2424 1.53458 17.2496 1.47831 19.2849 3.40105C21.3202 5.32378 21.3764 7.33093 19.4537 9.36621L11.7534 17.5167C11.3595 17.9388 10.6279 18.3327 10.0557 18.4265L7.03565 18.9424C6.8762 18.9518 6.73551 18.9705 6.58544 18.9705ZM16.3304 3.39167C15.6082 3.39167 14.9798 3.84187 14.342 4.51717L6.64172 12.6771C6.45414 12.874 6.23841 13.343 6.2009 13.615L5.85387 16.6538C5.81635 16.9634 5.89138 17.2166 6.06021 17.376C6.22903 17.5355 6.48227 17.5918 6.79179 17.5449L9.81189 17.029C10.0839 16.9821 10.5341 16.7383 10.7217 16.5413L18.422 8.39078C19.585 7.15272 20.0071 6.00846 18.3094 4.414C17.5591 3.6918 16.9119 3.39167 16.3304 3.39167Z" fill="#253017"/>
<path d="M17.6535 10.9326C17.6348 10.9326 17.6066 10.9326 17.5879 10.9326C14.6616 10.6419 12.3074 8.41902 11.8572 5.51147C11.8009 5.12692 12.0635 4.77051 12.4481 4.70485C12.8326 4.64858 13.189 4.9112 13.2547 5.29574C13.6111 7.56551 15.4494 9.31004 17.738 9.53514C18.1225 9.57266 18.4039 9.91969 18.3664 10.3042C18.3195 10.6606 18.01 10.9326 17.6535 10.9326Z" fill="#253017"/>
<path d="M21.086 22.0006H4.20344C3.81889 22.0006 3.5 21.6817 3.5 21.2972C3.5 20.9126 3.81889 20.5938 4.20344 20.5938H21.086C21.4705 20.5938 21.7894 20.9126 21.7894 21.2972C21.7894 21.6817 21.4705 22.0006 21.086 22.0006Z" fill="#253017"/>
</svg>
