<svg width="25" height="24" viewBox="0 0 25 24" fill="none" xmlns="http://www.w3.org/2000/svg">
<path d="M12.5 22C6.98372 22 2.5 17.5163 2.5 12C2.5 6.48372 6.98372 2 12.5 2C18.0163 2 22.5 6.48372 22.5 12C22.5 17.5163 18.0163 22 12.5 22ZM12.5 3.39535C7.75581 3.39535 3.89535 7.25581 3.89535 12C3.89535 16.7442 7.75581 20.6047 12.5 20.6047C17.2442 20.6047 21.1047 16.7442 21.1047 12C21.1047 7.25581 17.2442 3.39535 12.5 3.39535Z" fill="#253017"/>
<path d="M15.9505 15.6552C15.8296 15.6552 15.7087 15.6273 15.597 15.5529L12.7133 13.832C11.997 13.4041 11.4668 12.4645 11.4668 11.6366V7.82267C11.4668 7.44128 11.7831 7.125 12.1645 7.125C12.5459 7.125 12.8621 7.44128 12.8621 7.82267V11.6366C12.8621 11.9715 13.1412 12.4645 13.4296 12.632L16.3133 14.3529C16.6482 14.5483 16.7505 14.9762 16.5552 15.311C16.4156 15.5343 16.1831 15.6552 15.9505 15.6552Z" fill="#253017"/>
</svg>
