<svg width="24" height="25" viewBox="0 0 24 25" fill="none" xmlns="http://www.w3.org/2000/svg">
<path d="M11.6545 6.27578C11.3986 4.8804 12.0583 3.44439 12.8529 2.47664C13.7286 1.40885 15.2314 0.589988 16.5157 0.5C16.7326 1.96297 16.1356 3.38836 15.3497 4.3966C14.5066 5.47974 13.0571 6.3197 11.6545 6.27578ZM19.1875 11.332C19.5849 10.2233 20.3722 9.22577 21.5935 8.55273C20.3593 7.0126 18.6265 6.11845 16.9912 6.11845C14.8277 6.11845 13.9129 7.14923 12.4102 7.14923C10.8621 7.14923 9.68774 6.11845 7.81372 6.11845C5.97605 6.11845 4.01993 7.23851 2.77935 9.15142C2.32321 9.8585 2.01422 10.7369 1.8457 11.7153C1.3781 14.46 2.07659 18.035 4.16018 21.2094C5.17325 22.7497 6.52359 24.4847 8.28766 24.4998C9.85912 24.5152 10.3049 23.4951 12.4323 23.4846C14.5628 23.4725 14.9666 24.5104 16.5359 24.4954C18.3005 24.4805 19.7252 22.5604 20.7383 21.0203C21.4596 19.9151 21.7324 19.3568 22.2933 18.1073C19.4412 17.0317 18.2681 13.8889 19.1875 11.332Z" fill="#253017"/>
</svg>
