<svg width="25" height="25" viewBox="0 0 25 25" fill="none" xmlns="http://www.w3.org/2000/svg">
<path d="M24.5002 12.7658C24.5002 11.7792 24.4185 11.0592 24.2417 10.3125H12.7451V14.7658H19.4934C19.3574 15.8725 18.6227 17.5392 16.99 18.6591L16.9671 18.8082L20.6021 21.5679L20.854 21.5925C23.1668 19.4991 24.5002 16.4191 24.5002 12.7658Z" fill="#4285F4"/>
<path d="M12.745 24.4997C16.051 24.4997 18.8265 23.433 20.8538 21.593L16.9898 18.6596C15.9558 19.3663 14.568 19.8596 12.745 19.8596C9.50688 19.8596 6.75861 17.7664 5.77892 14.873L5.63532 14.885L1.85558 17.7517L1.80615 17.8863C3.81974 21.8063 7.9558 24.4997 12.745 24.4997Z" fill="#34A853"/>
<path d="M5.77886 14.8731C5.52036 14.1265 5.37076 13.3264 5.37076 12.4998C5.37076 11.6731 5.52036 10.8731 5.76526 10.1264L5.75841 9.96741L1.93131 7.05469L1.80609 7.11306C0.976196 8.73974 0.5 10.5664 0.5 12.4998C0.5 14.4331 0.976196 16.2597 1.80609 17.8864L5.77886 14.8731Z" fill="#FBBC05"/>
<path d="M12.745 5.13997C15.0442 5.13997 16.5952 6.1133 17.4796 6.92669L20.9354 3.62C18.813 1.68667 16.051 0.5 12.745 0.5C7.9558 0.5 3.81974 3.19331 1.80615 7.11328L5.76532 10.1267C6.75861 7.23333 9.50688 5.13997 12.745 5.13997Z" fill="#EB4335"/>
</svg>
