<svg width="19" height="20" viewBox="0 0 19 20" fill="none" xmlns="http://www.w3.org/2000/svg">
<path d="M5.34904 4.18605C4.96765 4.18605 4.65137 3.86977 4.65137 3.48837V0.697674C4.65137 0.316279 4.96765 0 5.34904 0C5.73044 0 6.04672 0.316279 6.04672 0.697674V3.48837C6.04672 3.86977 5.73044 4.18605 5.34904 4.18605Z" fill="#253017"/>
<path d="M12.7909 4.18605C12.4095 4.18605 12.0933 3.86977 12.0933 3.48837V0.697674C12.0933 0.316279 12.4095 0 12.7909 0C13.1723 0 13.4886 0.316279 13.4886 0.697674V3.48837C13.4886 3.86977 13.1723 4.18605 12.7909 4.18605Z" fill="#253017"/>
<path d="M5.81402 12.3255C5.69309 12.3255 5.57216 12.2976 5.46053 12.2511C5.3396 12.2046 5.24658 12.1395 5.15356 12.0557C4.98612 11.879 4.88379 11.6464 4.88379 11.3953C4.88379 11.2744 4.9117 11.1534 4.95821 11.0418C5.00472 10.9302 5.06984 10.8279 5.15356 10.7348C5.24658 10.6511 5.3396 10.586 5.46053 10.5395C5.79542 10.3999 6.21402 10.4744 6.47449 10.7348C6.64193 10.9116 6.74425 11.1534 6.74425 11.3953C6.74425 11.4511 6.73495 11.5162 6.72565 11.5813C6.71635 11.6372 6.69774 11.693 6.66983 11.7488C6.65123 11.8046 6.62333 11.8604 6.58612 11.9162C6.55821 11.9627 6.5117 12.0092 6.47449 12.0557C6.29774 12.2232 6.05588 12.3255 5.81402 12.3255Z" fill="#253017"/>
<path d="M9.06988 12.3255C8.94895 12.3255 8.82802 12.2976 8.71639 12.2511C8.59546 12.2046 8.50244 12.1394 8.40942 12.0557C8.24197 11.879 8.13965 11.6464 8.13965 11.3953C8.13965 11.2743 8.16756 11.1534 8.21407 11.0418C8.26058 10.9301 8.3257 10.8278 8.40942 10.7348C8.50244 10.6511 8.59546 10.586 8.71639 10.5394C9.05128 10.3906 9.46988 10.4743 9.73035 10.7348C9.89779 10.9116 10.0001 11.1534 10.0001 11.3953C10.0001 11.4511 9.99081 11.5162 9.98151 11.5813C9.97221 11.6371 9.9536 11.6929 9.92569 11.7488C9.90709 11.8046 9.87919 11.8604 9.84198 11.9162C9.81407 11.9627 9.76755 12.0092 9.73035 12.0557C9.5536 12.2232 9.31174 12.3255 9.06988 12.3255Z" fill="#253017"/>
<path d="M12.3257 12.3255C12.2048 12.3255 12.0839 12.2976 11.9723 12.2511C11.8513 12.2046 11.7583 12.1394 11.6653 12.0557C11.6281 12.0092 11.5909 11.9627 11.5536 11.9162C11.5164 11.8604 11.4885 11.8046 11.4699 11.7488C11.442 11.6929 11.4234 11.6371 11.4141 11.5813C11.4048 11.5162 11.3955 11.4511 11.3955 11.3953C11.3955 11.1534 11.4978 10.9116 11.6653 10.7348C11.7583 10.6511 11.8513 10.586 11.9723 10.5394C12.3164 10.3906 12.7257 10.4743 12.9862 10.7348C13.1536 10.9116 13.256 11.1534 13.256 11.3953C13.256 11.4511 13.2467 11.5162 13.2374 11.5813C13.2281 11.6371 13.2095 11.6929 13.1816 11.7488C13.1629 11.8046 13.135 11.8604 13.0978 11.9162C13.0699 11.9627 13.0234 12.0092 12.9862 12.0557C12.8095 12.2232 12.5676 12.3255 12.3257 12.3255Z" fill="#253017"/>
<path d="M5.81402 15.5815C5.69309 15.5815 5.57216 15.5536 5.46053 15.5071C5.3489 15.4606 5.24658 15.3954 5.15356 15.3117C4.98612 15.135 4.88379 14.8931 4.88379 14.6513C4.88379 14.5303 4.9117 14.4094 4.95821 14.2978C5.00472 14.1768 5.06984 14.0745 5.15356 13.9908C5.49774 13.6466 6.1303 13.6466 6.47449 13.9908C6.64193 14.1675 6.74425 14.4094 6.74425 14.6513C6.74425 14.8931 6.64193 15.135 6.47449 15.3117C6.29774 15.4792 6.05588 15.5815 5.81402 15.5815Z" fill="#253017"/>
<path d="M9.06988 15.5815C8.82802 15.5815 8.58616 15.4792 8.40942 15.3117C8.24197 15.135 8.13965 14.8931 8.13965 14.6513C8.13965 14.5303 8.16756 14.4094 8.21407 14.2978C8.26058 14.1768 8.3257 14.0745 8.40942 13.9908C8.7536 13.6466 9.38616 13.6466 9.73035 13.9908C9.81407 14.0745 9.87918 14.1768 9.92569 14.2978C9.9722 14.4094 10.0001 14.5303 10.0001 14.6513C10.0001 14.8931 9.89779 15.135 9.73035 15.3117C9.5536 15.4792 9.31174 15.5815 9.06988 15.5815Z" fill="#253017"/>
<path d="M12.3257 15.5815C12.0839 15.5815 11.842 15.4792 11.6653 15.3117C11.5816 15.228 11.5164 15.1257 11.4699 15.0048C11.4234 14.8931 11.3955 14.7722 11.3955 14.6513C11.3955 14.5303 11.4234 14.4094 11.4699 14.2978C11.5164 14.1769 11.5816 14.0745 11.6653 13.9908C11.8792 13.7769 12.2048 13.6745 12.5025 13.7396C12.5676 13.7489 12.6234 13.7675 12.6792 13.7954C12.735 13.8141 12.7909 13.842 12.8467 13.8792C12.8932 13.9071 12.9397 13.9536 12.9862 13.9908C13.1536 14.1676 13.256 14.4094 13.256 14.6513C13.256 14.8931 13.1536 15.135 12.9862 15.3117C12.8095 15.4792 12.5676 15.5815 12.3257 15.5815Z" fill="#253017"/>
<path d="M16.977 7.99056H1.16301C0.781611 7.99056 0.465332 7.67428 0.465332 7.29289C0.465332 6.91149 0.781611 6.59521 1.16301 6.59521H16.977C17.3584 6.59521 17.6746 6.91149 17.6746 7.29289C17.6746 7.67428 17.3584 7.99056 16.977 7.99056Z" fill="#253017"/>
<path d="M12.7907 19.9999H5.34884C1.95349 19.9999 0 18.0464 0 14.6511V6.7441C0 3.34875 1.95349 1.39526 5.34884 1.39526H12.7907C16.186 1.39526 18.1395 3.34875 18.1395 6.7441V14.6511C18.1395 18.0464 16.186 19.9999 12.7907 19.9999ZM5.34884 2.79061C2.68837 2.79061 1.39535 4.08364 1.39535 6.7441V14.6511C1.39535 17.3115 2.68837 18.6046 5.34884 18.6046H12.7907C15.4512 18.6046 16.7442 17.3115 16.7442 14.6511V6.7441C16.7442 4.08364 15.4512 2.79061 12.7907 2.79061H5.34884Z" fill="#253017"/>
</svg>
