<svg width="6" height="12" viewBox="0 0 6 12" fill="none" xmlns="http://www.w3.org/2000/svg">
<path d="M0.793233 11.3327C0.676338 11.3327 0.559443 11.2896 0.467157 11.1973C0.288739 11.0189 0.288739 10.7236 0.467157 10.5452L4.4785 6.53384C4.77381 6.23852 4.77381 5.75864 4.4785 5.46332L0.467157 1.45198C0.288739 1.27356 0.288739 0.978248 0.467157 0.79983C0.645576 0.621411 0.940889 0.621411 1.11931 0.79983L5.13065 4.81117C5.44442 5.12494 5.62284 5.54946 5.62284 5.99858C5.62284 6.4477 5.45058 6.87222 5.13065 7.18599L1.11931 11.1973C1.02702 11.2835 0.910128 11.3327 0.793233 11.3327Z" fill="#69735D"/>
</svg>
