<svg width="20" height="20" viewBox="0 0 20 20" fill="none" xmlns="http://www.w3.org/2000/svg">
<path d="M7.20951 8.83698C5.79555 8.83698 4.65137 7.6928 4.65137 6.27884C4.65137 4.86489 5.79555 3.7207 7.20951 3.7207C8.62346 3.7207 9.76765 4.86489 9.76765 6.27884C9.76765 7.6928 8.62346 8.83698 7.20951 8.83698ZM7.20951 5.11605C6.56765 5.11605 6.04672 5.63698 6.04672 6.27884C6.04672 6.9207 6.56765 7.44163 7.20951 7.44163C7.85137 7.44163 8.3723 6.9207 8.3723 6.27884C8.3723 5.63698 7.85137 5.11605 7.20951 5.11605Z" fill="#508826"/>
<path d="M12.7907 20H7.2093C2.15814 20 0 17.8419 0 12.7907V7.2093C0 2.15814 2.15814 0 7.2093 0H10.9302C11.3116 0 11.6279 0.316279 11.6279 0.697674C11.6279 1.07907 11.3116 1.39535 10.9302 1.39535H7.2093C2.92093 1.39535 1.39535 2.92093 1.39535 7.2093V12.7907C1.39535 17.0791 2.92093 18.6047 7.2093 18.6047H12.7907C17.0791 18.6047 18.6047 17.0791 18.6047 12.7907V8.13953C18.6047 7.75814 18.9209 7.44186 19.3023 7.44186C19.6837 7.44186 20 7.75814 20 8.13953V12.7907C20 17.8419 17.8419 20 12.7907 20Z" fill="#508826"/>
<path d="M18.6045 4.18636H13.4882C13.1068 4.18636 12.7905 3.87009 12.7905 3.48869C12.7905 3.10729 13.1068 2.79102 13.4882 2.79102H18.6045C18.9859 2.79102 19.3022 3.10729 19.3022 3.48869C19.3022 3.87009 18.9859 4.18636 18.6045 4.18636Z" fill="#508826"/>
<path d="M16.0463 6.74405C15.6649 6.74405 15.3486 6.42777 15.3486 6.04638V0.930096C15.3486 0.548701 15.6649 0.232422 16.0463 0.232422C16.4277 0.232422 16.744 0.548701 16.744 0.930096V6.04638C16.744 6.42777 16.4277 6.74405 16.0463 6.74405Z" fill="#508826"/>
<path d="M1.32078 17.1636C1.09753 17.1636 0.874271 17.0519 0.744038 16.8566C0.530085 16.5403 0.613806 16.1031 0.930085 15.8892L5.51613 12.8101C6.52078 12.1403 7.90683 12.2147 8.81846 12.9868L9.12543 13.2566C9.59055 13.6566 10.3812 13.6566 10.8371 13.2566L14.7068 9.93567C15.7022 9.08915 17.2464 9.08915 18.2417 9.93567L19.758 11.238C20.0464 11.4892 20.0836 11.9264 19.8324 12.224C19.5812 12.5124 19.144 12.5496 18.8464 12.2985L17.3301 10.9961C16.865 10.5961 16.0743 10.5961 15.6185 10.9961L11.7487 14.3171C10.7626 15.1636 9.20916 15.1636 8.21381 14.3171L7.90683 14.0473C7.47892 13.6845 6.77195 13.6473 6.29753 13.9729L1.72078 17.0519C1.59055 17.1264 1.45102 17.1636 1.32078 17.1636Z" fill="#508826"/>
</svg>
